<svg width="2063" height="453" viewBox="0 0 2063 453" fill="none" xmlns="http://www.w3.org/2000/svg">
<path d="M0 129C0 129 122.367 49.1606 256.5 26C492 -11 690 83.1167 717 98C756.642 119.852 769.639 155.522 742.5 174.117C723.154 187.372 663 192.117 634 149.117C598.5 66.6167 941.5 47.3833 1026.5 47.3833C1073 47.3833 1226.5 37 1321.5 123.5C1448.58 239.212 1704.29 301.37 1838.5 194C1874.77 164.986 1886.5 98.5 1866 47.3833C1858.95 29.8098 1814 3.32648e-10 1774.5 3.32601e-10C1720.83 3.32538e-10 1673.04 70.0167 1677.5 123.5C1688.5 255.5 1807.7 198.462 1894.5 288C1958.41 353.93 2062.5 452.5 2062.5 452.5" stroke="#81C3F5" stroke-width="2" stroke-dasharray="4 4"/>
</svg>
